<?xml version="1.0" encoding="utf-8"?>
<!-- Generator: Adobe Illustrator 16.0.0, SVG Export Plug-In . SVG Version: 6.00 Build 0)  -->
<!DOCTYPE svg PUBLIC "-//W3C//DTD SVG 1.1//EN" "http://www.w3.org/Graphics/SVG/1.1/DTD/svg11.dtd">
<svg version="1.1" xmlns="http://www.w3.org/2000/svg" xmlns:xlink="http://www.w3.org/1999/xlink" x="0px" y="0px"
	 width="597.269px" height="326.375px" viewBox="0 0 597.269 326.375" enable-background="new 0 0 597.269 326.375"
	 xml:space="preserve">
<g id="Calque_3" display="none">
	<rect y="195.442" display="inline" fill="#272B29" width="216.491" height="130.933"/>
</g>
<g id="Calque_2">
	<g>
		<path fill="#FFFFFF" d="M406.417,281.947l-0.137-78.992l-34.91,68.861h-6.571l-34.773-68.861v78.992h-10.404v-95.831h13.553
			l35.047,68.998l34.91-68.998h13.417v95.831H406.417z"/>
		<path fill="#FFFFFF" d="M532.509,281.947l-0.137-78.992l-34.91,68.861h-6.571l-34.773-68.861v78.992h-10.404v-95.831h13.553
			l35.047,68.998l34.91-68.998h13.417v95.831H532.509z"/>
		<path fill="#FFFFFF" d="M571.805,281.947v-95.831h10.952v95.831H571.805z"/>
	</g>
	<g>
		<path fill="#FFFFFF" d="M112.018,38.703l-6.206,13.69c-11.5-7.667-25.008-10.77-35.23-10.77c-16.429,0-27.199,6.207-27.199,16.977
			c0,32.857,71.921,15.698,71.739,62.064c0,21.357-18.802,35.048-46.183,35.048c-18.619,0-36.873-8.032-48.921-19.532l6.571-13.143
			c11.865,11.5,28.111,18.071,42.532,18.071c18.437,0,29.937-7.484,29.937-19.714c0.183-33.587-71.738-15.699-71.738-61.516
			c0-20.08,17.707-33.04,44.175-33.04C86.279,26.837,101.43,31.583,112.018,38.703z"/>
		<path fill="#FFFFFF" d="M187.408,148.41c-5.477,4.198-11.865,6.571-18.619,6.754c-13.143,0.183-20.08-8.762-20.08-25.921V66.266
			h-13.873v-3.651h13.873V40.163h3.651v22.453h33.223v3.651H152.36v62.977c0,14.604,5.659,22.453,16.429,22.27
			c5.842-0.183,11.683-2.19,16.429-6.024L187.408,148.41z"/>
		<path fill="#FFFFFF" d="M287.99,155.164h-3.651V127.6c-5.841,17.341-19.531,27.198-39.246,27.563
			c-23,0-36.508-13.873-36.508-37.238V60.79h3.65v57.135c0,21.175,12.23,33.587,32.857,33.587
			c24.644-0.547,39.246-17.159,39.246-44.54V60.79h3.651V155.164z"/>
		<path fill="#FFFFFF" d="M409.929,155.164h-3.65v-27.746c-6.937,16.976-22.635,28.111-42.532,28.111
			c-26.65,0-46.183-20.08-46.183-47.461c0-27.563,19.532-47.643,46.183-47.643c19.897,0,35.596,11.135,42.532,28.111V19.718h3.65
			V155.164z M406.278,108.068c0-25.373-17.889-43.992-42.532-43.992c-24.643,0-42.532,18.619-42.532,43.992
			c0,25.374,17.89,43.81,42.532,43.81C388.39,151.878,406.278,133.441,406.278,108.068z"/>
		<path fill="#FFFFFF" d="M457.573,33.591c0,2.556-2.19,4.746-4.746,4.746s-4.746-2.19-4.746-4.746s2.19-4.746,4.746-4.746
			S457.573,31.036,457.573,33.591z M451.001,155.164V60.79h3.651v94.374H451.001z"/>
	</g>
</g>
<g id="Calque_1">
	<path fill="#EAEAEA" d="M584.82,109.739c0,29.904-24.242,54.146-54.14,54.146c-29.916,0-54.154-24.241-54.154-54.146
		c0-29.903,24.238-54.146,54.154-54.146C560.578,55.594,584.82,79.836,584.82,109.739z"/>
	<radialGradient id="SVGID_1_" cx="530.6729" cy="109.7397" r="53.3857" gradientUnits="userSpaceOnUse">
		<stop  offset="0" style="stop-color:#FFFFFF"/>
		<stop  offset="0.1976" style="stop-color:#FCFCFC"/>
		<stop  offset="0.3343" style="stop-color:#F3F3F3"/>
		<stop  offset="0.4529" style="stop-color:#E4E4E4"/>
		<stop  offset="0.5609" style="stop-color:#CECECE"/>
		<stop  offset="0.662" style="stop-color:#B2B2B2"/>
		<stop  offset="0.7577" style="stop-color:#8F8F8F"/>
		<stop  offset="0.8494" style="stop-color:#666666"/>
		<stop  offset="0.9354" style="stop-color:#373737"/>
		<stop  offset="1" style="stop-color:#0F0F0F"/>
	</radialGradient>
	<path fill="url(#SVGID_1_)" d="M584.06,109.739c0,29.485-23.899,53.385-53.379,53.385c-29.497,0-53.395-23.9-53.395-53.385
		c0-29.482,23.897-53.385,53.395-53.385C560.16,56.354,584.06,80.257,584.06,109.739z"/>
	<radialGradient id="SVGID_2_" cx="530.6729" cy="109.7437" r="45.4165" gradientUnits="userSpaceOnUse">
		<stop  offset="0" style="stop-color:#575757"/>
		<stop  offset="0.2931" style="stop-color:#545454"/>
		<stop  offset="0.5182" style="stop-color:#4A4A4A"/>
		<stop  offset="0.7205" style="stop-color:#3A3A3A"/>
		<stop  offset="0.9083" style="stop-color:#232323"/>
		<stop  offset="1" style="stop-color:#141414"/>
	</radialGradient>
	<path fill="url(#SVGID_2_)" d="M576.088,109.75c0,25.068-20.334,45.412-45.426,45.412c-25.07,0-45.404-20.343-45.404-45.412
		c0-25.083,20.334-45.424,45.404-45.424C555.754,64.326,576.088,84.667,576.088,109.75z"/>
	<path fill="#383838" d="M569.955,109.75c0,21.683-17.592,39.279-39.293,39.279c-21.68,0-39.274-17.596-39.274-39.279
		c0-21.694,17.595-39.292,39.274-39.292C552.363,70.458,569.955,88.056,569.955,109.75z"/>
	<path fill="none" stroke="#3C3C3B" stroke-width="0.08" stroke-miterlimit="10" d="M561.598,109.745
		c0,17.074-13.849,30.93-30.936,30.93c-17.074,0-30.92-13.856-30.92-30.93c0-17.076,13.846-30.932,30.92-30.932
		C547.749,78.813,561.598,92.669,561.598,109.745z"/>
	<path fill="none" stroke="#3C3C3B" stroke-width="0.08" stroke-miterlimit="10" d="M560.133,109.745
		c0,16.266-13.191,29.462-29.471,29.462c-16.264,0-29.452-13.196-29.452-29.462c0-16.27,13.188-29.467,29.452-29.467
		C546.941,80.278,560.133,93.476,560.133,109.745z"/>
	<path fill="none" stroke="#3C3C3B" stroke-width="0.08" stroke-miterlimit="10" d="M558.556,109.745
		c0,15.391-12.485,27.881-27.894,27.881c-15.39,0-27.875-12.49-27.875-27.881c0-15.395,12.485-27.884,27.875-27.884
		C546.07,81.861,558.556,94.351,558.556,109.745z"/>
	<path fill="none" stroke="#3C3C3B" stroke-width="0.08" stroke-miterlimit="10" d="M557.055,109.745
		c0,14.567-11.816,26.384-26.393,26.384c-14.561,0-26.374-11.816-26.374-26.384c0-14.569,11.813-26.389,26.374-26.389
		C545.238,83.356,557.055,95.176,557.055,109.745z"/>
	<path fill="none" stroke="#3C3C3B" stroke-width="0.08" stroke-miterlimit="10" d="M555.299,109.745
		c0,13.595-11.028,24.625-24.637,24.625c-13.59,0-24.618-11.03-24.618-24.625c0-13.599,11.028-24.629,24.618-24.629
		C544.271,85.116,555.299,96.146,555.299,109.745z"/>
	<path fill="none" stroke="#3C3C3B" stroke-width="0.08" stroke-miterlimit="10" d="M562.917,109.75
		c0,17.797-14.437,32.244-32.255,32.244c-17.797,0-32.236-14.447-32.236-32.244c0-17.811,14.439-32.257,32.236-32.257
		C548.48,77.493,562.917,91.939,562.917,109.75z"/>
	<path fill="none" stroke="#3C3C3B" stroke-width="0.08" stroke-miterlimit="10" d="M567.466,109.75
		c0,20.306-16.475,36.79-36.804,36.79c-20.307,0-36.785-16.484-36.785-36.79c0-20.318,16.479-36.8,36.785-36.8
		C550.991,72.95,567.466,89.432,567.466,109.75z"/>
	<path fill="#080808" d="M551.517,109.75c0,11.507-9.338,20.836-20.854,20.836c-11.498,0-20.833-9.329-20.833-20.836
		c0-11.513,9.335-20.847,20.833-20.847C542.179,88.903,551.517,98.237,551.517,109.75z"/>
	<circle fill="#030303" stroke="#000000" stroke-width="0.08" stroke-miterlimit="10" cx="530.671" cy="109.745" r="9.116"/>
	<path fill="none" stroke="#111111" stroke-width="0.08" stroke-miterlimit="10" d="M547.851,109.75
		c0,9.48-7.689,17.17-17.188,17.17c-9.48,0-17.17-7.689-17.17-17.17c0-9.487,7.689-17.184,17.17-17.184
		C540.161,92.566,547.851,100.263,547.851,109.75z"/>
	<path fill="none" stroke="#111111" stroke-width="0.08" stroke-miterlimit="10" d="M549.217,109.75
		c0,10.237-8.301,18.538-18.555,18.538c-10.235,0-18.536-8.301-18.536-18.538c0-10.242,8.301-18.55,18.536-18.55
		C540.916,91.2,549.217,99.508,549.217,109.75z"/>
	<radialGradient id="SVGID_3_" cx="531.6035" cy="106.9507" r="5.6936" gradientUnits="userSpaceOnUse">
		<stop  offset="0" style="stop-color:#141414"/>
		<stop  offset="0.8159" style="stop-color:#111111"/>
		<stop  offset="1" style="stop-color:#0F0F0F"/>
	</radialGradient>
	<path fill="url(#SVGID_3_)" d="M527.358,101.26c2.687-1.297,6.133-1.223,8.958,1.334c0.253,1.986-2.93,2.575-3.684,3.453
		c-0.755,0.879,0.044,1.713-0.794,2.25c-0.841,0.535,1.727,3.2,1.287,4.397c-0.44,1.194-4.154,0.857-5.084,0
		c-0.927-0.857,1.271-3.812,1.271-3.812s-1.146-1.003-0.684-2.542C529.094,104.8,525.642,104.017,527.358,101.26z"/>
	<path opacity="0.1" fill="#FFFFFF" d="M558.365,129.127c5.315-3.705,6.607-15.652,6.607-15.652
		c4.982-23.123-12.609-43.017-34.311-43.017c-17.844,0-37.751,18.774-31.547,27.447
		C530.594,107.499,537.484,132.777,558.365,129.127z"/>
	<path opacity="0.2" fill="#FFFFFF" d="M531.602,77.531c-6.979,0.858-3.108,11.801,4.727,15.999
		c7.841,4.195,19.087-1.184,18.121-5.564C553.483,83.584,538.584,76.671,531.602,77.531z"/>
	<path opacity="0.1" fill="#FFFFFF" d="M528.146,104.979c-0.942-1.178,6.723-0.385,5.606,0.34c-0.473,0.352-0.205,0.406-1.04,1.187
		c-0.838,0.781-4.083-0.167-4.083-0.167S529.088,106.156,528.146,104.979z"/>
</g>
</svg>
