<?xml version="1.0" encoding="utf-8"?>
<!-- Generator: Adobe Illustrator 16.0.0, SVG Export Plug-In . SVG Version: 6.00 Build 0)  -->
<!DOCTYPE svg PUBLIC "-//W3C//DTD SVG 1.1//EN" "http://www.w3.org/Graphics/SVG/1.1/DTD/svg11.dtd">
<svg version="1.1" xmlns="http://www.w3.org/2000/svg" xmlns:xlink="http://www.w3.org/1999/xlink" x="0px" y="0px"
	 width="163.912px" height="87.762px" viewBox="0 0 163.912 87.762" enable-background="new 0 0 163.912 87.762"
	 xml:space="preserve">
<g id="Calque_2">
	<g>
		<path fill="#5BE62F" d="M110.261,79.257l-0.039-22.204l-9.813,19.356h-1.847l-9.774-19.356v22.204h-2.925V52.319h3.81
			l9.852,19.395l9.813-19.395h3.771v26.938H110.261z"/>
		<path fill="#5BE62F" d="M145.706,79.257l-0.039-22.204l-9.813,19.356h-1.847l-9.774-19.356v22.204h-2.925V52.319h3.81
			l9.852,19.395l9.813-19.395h3.771v26.938H145.706z"/>
		<path fill="#5BE62F" d="M156.754,79.257V52.319h3.079v26.938H156.754z"/>
	</g>
	<g>
		<path fill="#5BE62F" d="M27.505,10.878l-1.745,3.849c-3.233-2.155-7.03-3.027-9.904-3.027c-4.618,0-7.646,1.745-7.646,4.772
			c0,9.237,20.218,4.413,20.167,17.447c0,6.004-5.286,9.853-12.983,9.853c-5.234,0-10.366-2.258-13.752-5.491l1.847-3.694
			c3.335,3.232,7.903,5.08,11.957,5.08c5.183,0,8.416-2.104,8.416-5.542c0.051-9.442-20.167-4.413-20.167-17.293
			c0-5.645,4.978-9.288,12.418-9.288C20.27,7.542,24.529,8.877,27.505,10.878z"/>
		<path fill="#302F2B" d="M48.698,41.719c-1.54,1.18-3.335,1.847-5.234,1.898c-3.695,0.052-5.645-2.463-5.645-7.287V18.626h-3.9
			V17.6h3.9v-6.312h1.026V17.6h9.339v1.026h-9.339v17.704c0,4.105,1.591,6.312,4.618,6.26c1.642-0.051,3.284-0.616,4.619-1.693
			L48.698,41.719z"/>
		<path fill="#302F2B" d="M76.972,43.617h-1.026v-7.749c-1.642,4.875-5.491,7.646-11.033,7.749c-6.465,0-10.263-3.9-10.263-10.468
			V17.087h1.026v16.062c0,5.953,3.438,9.442,9.236,9.442c6.928-0.154,11.033-4.824,11.033-12.521V17.087h1.026V43.617z"/>
		<path fill="#302F2B" d="M111.25,43.617h-1.026v-7.8c-1.95,4.772-6.363,7.902-11.956,7.902c-7.492,0-12.983-5.645-12.983-13.342
			c0-7.749,5.491-13.394,12.983-13.394c5.593,0,10.006,3.13,11.956,7.903V5.541h1.026V43.617z M110.224,30.378
			c0-7.133-5.029-12.367-11.956-12.367c-6.928,0-11.957,5.234-11.957,12.367s5.029,12.315,11.957,12.315
			C105.195,42.693,110.224,37.511,110.224,30.378z"/>
		<path fill="#302F2B" d="M124.643,9.441c0,0.718-0.616,1.334-1.334,1.334c-0.718,0-1.334-0.616-1.334-1.334
			c0-0.719,0.616-1.334,1.334-1.334C124.027,8.107,124.643,8.723,124.643,9.441z M122.795,43.617v-26.53h1.026v26.53H122.795z"/>
	</g>
</g>
<g id="Calque_1">
	<path fill="#E9E9EA" d="M160.412,30.847c0,8.406-6.814,15.221-15.219,15.221c-8.41,0-15.223-6.815-15.223-15.221
		c0-8.406,6.813-15.221,15.223-15.221C153.598,15.626,160.412,22.441,160.412,30.847z"/>
	<radialGradient id="SVGID_1_" cx="145.1914" cy="30.8477" r="15.0068" gradientUnits="userSpaceOnUse">
		<stop  offset="0" style="stop-color:#FFFFFF"/>
		<stop  offset="0.1976" style="stop-color:#FCFCFC"/>
		<stop  offset="0.3343" style="stop-color:#F3F3F3"/>
		<stop  offset="0.4529" style="stop-color:#E4E4E4"/>
		<stop  offset="0.5609" style="stop-color:#CECECE"/>
		<stop  offset="0.662" style="stop-color:#B2B2B2"/>
		<stop  offset="0.7577" style="stop-color:#8F8F8F"/>
		<stop  offset="0.8494" style="stop-color:#666666"/>
		<stop  offset="0.9354" style="stop-color:#373737"/>
		<stop  offset="1" style="stop-color:#0F0F0F"/>
	</radialGradient>
	<path fill="url(#SVGID_1_)" d="M160.198,30.847c0,8.289-6.718,15.007-15.005,15.007c-8.292,0-15.009-6.719-15.009-15.007
		c0-8.288,6.717-15.007,15.009-15.007C153.48,15.84,160.198,22.56,160.198,30.847z"/>
	<radialGradient id="SVGID_2_" cx="145.1914" cy="30.8486" r="12.7671" gradientUnits="userSpaceOnUse">
		<stop  offset="0" style="stop-color:#575757"/>
		<stop  offset="0.2931" style="stop-color:#545454"/>
		<stop  offset="0.5182" style="stop-color:#4A4A4A"/>
		<stop  offset="0.7205" style="stop-color:#3A3A3A"/>
		<stop  offset="0.9083" style="stop-color:#232323"/>
		<stop  offset="1" style="stop-color:#141414"/>
	</radialGradient>
	<path fill="url(#SVGID_2_)" d="M157.958,30.85c0,7.047-5.716,12.766-12.77,12.766c-7.047,0-12.764-5.719-12.764-12.766
		c0-7.051,5.716-12.769,12.764-12.769C152.242,18.081,157.958,23.799,157.958,30.85z"/>
	<path fill="#383838" d="M156.234,30.85c0,6.095-4.946,11.042-11.046,11.042c-6.095,0-11.041-4.947-11.041-11.042
		c0-6.098,4.946-11.045,11.041-11.045C151.289,19.805,156.234,24.752,156.234,30.85z"/>
	<circle fill="none" stroke="#3C3C3B" stroke-width="0.08" stroke-miterlimit="10" cx="145.191" cy="30.849" r="8.694"/>
	<circle fill="none" stroke="#3C3C3B" stroke-width="0.08" stroke-miterlimit="10" cx="145.191" cy="30.849" r="8.282"/>
	<circle fill="none" stroke="#3C3C3B" stroke-width="0.08" stroke-miterlimit="10" cx="145.191" cy="30.849" r="7.838"/>
	<circle fill="none" stroke="#3C3C3B" stroke-width="0.08" stroke-miterlimit="10" cx="145.191" cy="30.849" r="7.417"/>
	<path fill="none" stroke="#3C3C3B" stroke-width="0.08" stroke-miterlimit="10" d="M152.114,30.849c0,3.821-3.1,6.922-6.925,6.922
		c-3.82,0-6.92-3.101-6.92-6.922c0-3.823,3.1-6.924,6.92-6.924C149.014,23.925,152.114,27.026,152.114,30.849z"/>
	<path fill="none" stroke="#3C3C3B" stroke-width="0.08" stroke-miterlimit="10" d="M154.255,30.85c0,5.003-4.058,9.064-9.066,9.064
		c-5.003,0-9.062-4.061-9.062-9.064c0-5.006,4.059-9.068,9.062-9.068C150.197,21.782,154.255,25.844,154.255,30.85z"/>
	<path fill="none" stroke="#3C3C3B" stroke-width="0.08" stroke-miterlimit="10" d="M155.534,30.85
		c0,5.708-4.631,10.342-10.346,10.342c-5.708,0-10.341-4.633-10.341-10.342c0-5.711,4.632-10.345,10.341-10.345
		C150.903,20.505,155.534,25.139,155.534,30.85z"/>
	<path fill="#080808" d="M151.051,30.85c0,3.235-2.625,5.857-5.862,5.857c-3.232,0-5.856-2.623-5.856-5.857
		c0-3.236,2.624-5.86,5.856-5.86C148.426,24.99,151.051,27.614,151.051,30.85z"/>
	<circle fill="#030303" stroke="#000000" stroke-width="0.08" stroke-miterlimit="10" cx="145.191" cy="30.849" r="2.563"/>
	<path fill="none" stroke="#111111" stroke-width="0.08" stroke-miterlimit="10" d="M150.02,30.85c0,2.665-2.162,4.827-4.832,4.827
		c-2.665,0-4.827-2.162-4.827-4.827c0-2.667,2.162-4.83,4.827-4.83C147.858,26.02,150.02,28.184,150.02,30.85z"/>
	<path fill="none" stroke="#111111" stroke-width="0.08" stroke-miterlimit="10" d="M150.404,30.85c0,2.878-2.333,5.211-5.216,5.211
		c-2.877,0-5.211-2.333-5.211-5.211c0-2.879,2.333-5.214,5.211-5.214C148.071,25.636,150.404,27.971,150.404,30.85z"/>
	<radialGradient id="SVGID_3_" cx="145.4531" cy="30.0635" r="1.6002" gradientUnits="userSpaceOnUse">
		<stop  offset="0" style="stop-color:#141414"/>
		<stop  offset="0.8159" style="stop-color:#111111"/>
		<stop  offset="1" style="stop-color:#0F0F0F"/>
	</radialGradient>
	<path fill="url(#SVGID_3_)" d="M144.26,28.463c0.755-0.364,1.724-0.343,2.518,0.375c0.071,0.559-0.824,0.724-1.036,0.971
		c-0.212,0.247,0.013,0.481-0.223,0.633c-0.236,0.15,0.485,0.899,0.362,1.236c-0.124,0.336-1.167,0.241-1.429,0
		c-0.261-0.241,0.357-1.071,0.357-1.071s-0.322-0.282-0.192-0.715S143.777,29.239,144.26,28.463z"/>
	<path opacity="0.1" fill="#FFFFFF" d="M152.976,36.297c1.494-1.042,1.857-4.4,1.857-4.4c1.401-6.5-3.544-12.092-9.645-12.092
		c-5.016,0-10.612,5.277-8.868,7.715C145.169,30.218,147.106,37.323,152.976,36.297z"/>
	<path opacity="0.2" fill="#FFFFFF" d="M145.452,21.793c-1.962,0.241-0.874,3.317,1.329,4.498c2.204,1.179,5.365-0.333,5.094-1.564
		S147.415,21.551,145.452,21.793z"/>
	<path opacity="0.1" fill="#FFFFFF" d="M144.481,29.509c-0.265-0.331,1.89-0.108,1.576,0.096c-0.133,0.099-0.058,0.114-0.292,0.333
		c-0.235,0.22-1.147-0.047-1.147-0.047S144.746,29.84,144.481,29.509z"/>
</g>
</svg>
