<?xml version="1.0" encoding="utf-8"?>
<!-- Generator: Adobe Illustrator 16.0.0, SVG Export Plug-In . SVG Version: 6.00 Build 0)  -->
<!DOCTYPE svg PUBLIC "-//W3C//DTD SVG 1.1//EN" "http://www.w3.org/Graphics/SVG/1.1/DTD/svg11.dtd">
<svg version="1.1" xmlns="http://www.w3.org/2000/svg" xmlns:xlink="http://www.w3.org/1999/xlink" x="0px" y="0px"
	 width="163.912px" height="87.762px" viewBox="0 0 163.912 87.762" enable-background="new 0 0 163.912 87.762"
	 xml:space="preserve">
<g id="Calque_2">
	<text transform="matrix(1 0 0 1 81.7837 79.2568)" fill="#5BE62F" font-family="'Montserrat-Light'" font-size="38.4862">MMI</text>
	<text transform="matrix(1 0 0 1 0 43.6172)"><tspan x="0" y="0" fill="#5BE62F" font-family="'Montserrat-Light'" font-size="51.3149">S</tspan><tspan x="31.353" y="0" fill="#302F2B" font-family="'Montserrat-Hairline'" font-size="51.3149">tudi</tspan></text>
</g>
<g id="Calque_1">
	<path fill="#E9E9EA" d="M160.412,30.847c0,8.406-6.814,15.221-15.219,15.221c-8.41,0-15.223-6.815-15.223-15.221
		c0-8.406,6.813-15.221,15.223-15.221C153.598,15.626,160.412,22.441,160.412,30.847z"/>
	<radialGradient id="SVGID_1_" cx="145.1914" cy="30.8477" r="15.0068" gradientUnits="userSpaceOnUse">
		<stop  offset="0" style="stop-color:#FFFFFF"/>
		<stop  offset="0.1976" style="stop-color:#FCFCFC"/>
		<stop  offset="0.3343" style="stop-color:#F3F3F3"/>
		<stop  offset="0.4529" style="stop-color:#E4E4E4"/>
		<stop  offset="0.5609" style="stop-color:#CECECE"/>
		<stop  offset="0.662" style="stop-color:#B2B2B2"/>
		<stop  offset="0.7577" style="stop-color:#8F8F8F"/>
		<stop  offset="0.8494" style="stop-color:#666666"/>
		<stop  offset="0.9354" style="stop-color:#373737"/>
		<stop  offset="1" style="stop-color:#0F0F0F"/>
	</radialGradient>
	<path fill="url(#SVGID_1_)" d="M160.198,30.847c0,8.289-6.718,15.007-15.005,15.007c-8.292,0-15.009-6.719-15.009-15.007
		c0-8.288,6.717-15.007,15.009-15.007C153.48,15.84,160.198,22.56,160.198,30.847z"/>
	<radialGradient id="SVGID_2_" cx="145.1914" cy="30.8486" r="12.7671" gradientUnits="userSpaceOnUse">
		<stop  offset="0" style="stop-color:#575757"/>
		<stop  offset="0.2931" style="stop-color:#545454"/>
		<stop  offset="0.5182" style="stop-color:#4A4A4A"/>
		<stop  offset="0.7205" style="stop-color:#3A3A3A"/>
		<stop  offset="0.9083" style="stop-color:#232323"/>
		<stop  offset="1" style="stop-color:#141414"/>
	</radialGradient>
	<path fill="url(#SVGID_2_)" d="M157.958,30.85c0,7.047-5.716,12.766-12.77,12.766c-7.047,0-12.764-5.719-12.764-12.766
		c0-7.051,5.716-12.769,12.764-12.769C152.242,18.081,157.958,23.799,157.958,30.85z"/>
	<path fill="#383838" d="M156.234,30.85c0,6.095-4.946,11.042-11.046,11.042c-6.095,0-11.041-4.947-11.041-11.042
		c0-6.098,4.946-11.045,11.041-11.045C151.289,19.805,156.234,24.752,156.234,30.85z"/>
	<circle fill="none" stroke="#3C3C3B" stroke-width="0.08" stroke-miterlimit="10" cx="145.191" cy="30.849" r="8.694"/>
	<circle fill="none" stroke="#3C3C3B" stroke-width="0.08" stroke-miterlimit="10" cx="145.191" cy="30.849" r="8.282"/>
	<circle fill="none" stroke="#3C3C3B" stroke-width="0.08" stroke-miterlimit="10" cx="145.191" cy="30.849" r="7.838"/>
	<circle fill="none" stroke="#3C3C3B" stroke-width="0.08" stroke-miterlimit="10" cx="145.191" cy="30.849" r="7.417"/>
	<path fill="none" stroke="#3C3C3B" stroke-width="0.08" stroke-miterlimit="10" d="M152.114,30.849c0,3.821-3.1,6.922-6.925,6.922
		c-3.82,0-6.92-3.101-6.92-6.922c0-3.823,3.1-6.924,6.92-6.924C149.014,23.925,152.114,27.026,152.114,30.849z"/>
	<path fill="none" stroke="#3C3C3B" stroke-width="0.08" stroke-miterlimit="10" d="M154.255,30.85c0,5.003-4.058,9.064-9.066,9.064
		c-5.003,0-9.062-4.061-9.062-9.064c0-5.006,4.059-9.068,9.062-9.068C150.197,21.782,154.255,25.844,154.255,30.85z"/>
	<path fill="none" stroke="#3C3C3B" stroke-width="0.08" stroke-miterlimit="10" d="M155.534,30.85
		c0,5.708-4.631,10.342-10.346,10.342c-5.708,0-10.341-4.633-10.341-10.342c0-5.711,4.632-10.345,10.341-10.345
		C150.903,20.505,155.534,25.139,155.534,30.85z"/>
	<path fill="#080808" d="M151.051,30.85c0,3.235-2.625,5.857-5.862,5.857c-3.232,0-5.856-2.623-5.856-5.857
		c0-3.236,2.624-5.86,5.856-5.86C148.426,24.99,151.051,27.614,151.051,30.85z"/>
	<circle fill="#030303" stroke="#000000" stroke-width="0.08" stroke-miterlimit="10" cx="145.191" cy="30.849" r="2.563"/>
	<path fill="none" stroke="#111111" stroke-width="0.08" stroke-miterlimit="10" d="M150.02,30.85c0,2.665-2.162,4.827-4.832,4.827
		c-2.665,0-4.827-2.162-4.827-4.827c0-2.667,2.162-4.83,4.827-4.83C147.858,26.02,150.02,28.184,150.02,30.85z"/>
	<path fill="none" stroke="#111111" stroke-width="0.08" stroke-miterlimit="10" d="M150.404,30.85c0,2.878-2.333,5.211-5.216,5.211
		c-2.877,0-5.211-2.333-5.211-5.211c0-2.879,2.333-5.214,5.211-5.214C148.071,25.636,150.404,27.971,150.404,30.85z"/>
	<radialGradient id="SVGID_3_" cx="145.4531" cy="30.0635" r="1.6002" gradientUnits="userSpaceOnUse">
		<stop  offset="0" style="stop-color:#141414"/>
		<stop  offset="0.8159" style="stop-color:#111111"/>
		<stop  offset="1" style="stop-color:#0F0F0F"/>
	</radialGradient>
	<path fill="url(#SVGID_3_)" d="M144.26,28.463c0.755-0.364,1.724-0.343,2.518,0.375c0.071,0.559-0.824,0.724-1.036,0.971
		c-0.212,0.247,0.013,0.481-0.223,0.633c-0.236,0.15,0.485,0.899,0.362,1.236c-0.124,0.336-1.167,0.241-1.429,0
		c-0.261-0.241,0.357-1.071,0.357-1.071s-0.322-0.282-0.192-0.715S143.777,29.239,144.26,28.463z"/>
	<path opacity="0.1" fill="#FFFFFF" d="M152.976,36.297c1.494-1.042,1.857-4.4,1.857-4.4c1.401-6.5-3.544-12.092-9.645-12.092
		c-5.016,0-10.612,5.277-8.868,7.715C145.169,30.218,147.106,37.323,152.976,36.297z"/>
	<path opacity="0.2" fill="#FFFFFF" d="M145.452,21.793c-1.962,0.241-0.874,3.317,1.329,4.498c2.204,1.179,5.365-0.333,5.094-1.564
		S147.415,21.551,145.452,21.793z"/>
	<path opacity="0.1" fill="#FFFFFF" d="M144.481,29.509c-0.265-0.331,1.89-0.108,1.576,0.096c-0.133,0.099-0.058,0.114-0.292,0.333
		c-0.235,0.22-1.147-0.047-1.147-0.047S144.746,29.84,144.481,29.509z"/>
</g>
</svg>
